<svg width="141" height="151" viewBox="0 0 141 151" fill="none" xmlns="http://www.w3.org/2000/svg">
<path d="M66.8483 119.471C97.7801 119.471 122.857 94.3939 122.857 63.3516C122.857 32.3093 97.6696 7.23242 66.8483 7.23242C35.9165 7.23242 10.8396 32.3093 10.8396 63.3516C10.8396 94.3939 35.9165 119.471 66.8483 119.471Z" fill="#5464D5" fill-opacity="0.1"/>
<path d="M118.77 26.6748C121.271 26.6748 123.299 24.647 123.299 22.1455C123.299 19.644 121.271 17.6162 118.77 17.6162C116.268 17.6162 114.24 19.644 114.24 22.1455C114.24 24.647 116.268 26.6748 118.77 26.6748Z" fill="#EAEEF9"/>
<path d="M125.397 8.99984C127.106 8.99984 128.491 7.61497 128.491 5.90666C128.491 4.19834 127.106 2.81348 125.397 2.81348C123.689 2.81348 122.304 4.19834 122.304 5.90666C122.304 7.61497 123.689 8.99984 125.397 8.99984Z" fill="#EAEEF9"/>
<path d="M13.3804 26.5648C15.0887 26.5648 16.4735 25.1799 16.4735 23.4716C16.4735 21.7633 15.0887 20.3784 13.3804 20.3784C11.672 20.3784 10.2872 21.7633 10.2872 23.4716C10.2872 25.1799 11.672 26.5648 13.3804 26.5648Z" fill="#EAEEF9"/>
<path d="M5.74448 94.9606C8.91707 94.9606 11.489 92.3888 11.489 89.2162C11.489 86.0436 8.91707 83.4717 5.74448 83.4717C2.57189 83.4717 0 86.0436 0 89.2162C0 92.3888 2.57189 94.9606 5.74448 94.9606Z" fill="#F1F3F9"/>
<g filter="url(#filter0_d_1012_5545)">
<path d="M108.477 101.67C98.2423 112.785 83.5789 119.737 67.2923 119.737C54.2943 119.737 42.3302 115.309 32.8262 107.871V16.2803C32.8262 13.2506 35.2658 10.7783 38.3092 10.7783H92.704L108.477 26.6057V101.67Z" fill="url(#paint0_linear_1012_5545)"/>
</g>
<path d="M54.9534 100.528H47.0322C46.7366 100.528 46.5002 99.7619 46.5002 98.8429C46.5002 97.924 46.7366 97.1582 47.0322 97.1582H54.9534C55.249 97.1582 55.4854 97.924 55.4854 98.8429C55.4854 99.915 55.249 100.528 54.9534 100.528Z" fill="#A7B0E9"/>
<path d="M72.3843 29.7689H47.5718C46.9948 29.7689 46.5002 28.9913 46.5002 28.0841C46.5002 27.177 46.9948 26.3994 47.5718 26.3994H72.3843C72.9613 26.3994 73.4559 27.177 73.4559 28.0841C73.4559 28.9913 72.9613 29.7689 72.3843 29.7689Z" fill="#A7B0E9"/>
<path d="M53.6931 37.6312H47.225C46.8347 37.6312 46.5002 36.8536 46.5002 35.9465C46.5002 35.0393 46.8347 34.2617 47.225 34.2617H53.6374C54.0277 34.2617 54.3623 35.0393 54.3623 35.9465C54.3623 36.8536 54.0277 37.6312 53.6931 37.6312Z" fill="#A7B0E9"/>
<path d="M92.8461 81.4341H62.0913H58.7017H48.4501C48.0367 81.4341 47.6233 82.1361 47.6233 83.1188C47.6233 83.9612 47.954 84.8036 48.4501 84.8036H58.7017H62.0913H92.8461C93.2594 84.8036 93.6728 84.1016 93.6728 83.1188C93.5901 82.1361 93.2594 81.4341 92.8461 81.4341Z" fill="#A7B0E9"/>
<path d="M92.8446 72.4487H81.415H77.5223H48.4515C48.0374 72.4487 47.6233 73.1507 47.6233 74.1335C47.6233 74.9758 47.9546 75.8182 48.4515 75.8182H77.5223H81.415H92.8446C93.2587 75.8182 93.6728 75.1162 93.6728 74.1335C93.59 73.1507 93.2587 72.4487 92.8446 72.4487Z" fill="#A7B0E9"/>
<path d="M94.0244 64.5869H90.9817H87.939H48.4685C48.0459 64.5869 47.6233 65.2889 47.6233 66.2716C47.6233 67.114 47.9614 67.9564 48.4685 67.9564H87.939H91.3198H93.9399C94.3625 67.9564 94.7851 67.2544 94.7851 66.2716C94.8696 65.4293 94.447 64.5869 94.0244 64.5869Z" fill="#A7B0E9"/>
<path d="M93.9581 55.6016H84.1549H81.725H48.4612C48.0423 55.6016 47.6233 56.3035 47.6233 57.2863C47.6233 58.1287 47.9585 58.971 48.4612 58.971H81.725H84.1549H93.8743C94.4608 58.971 94.796 58.2691 94.796 57.2863C94.796 56.4439 94.4608 55.6016 93.9581 55.6016Z" fill="#A7B0E9"/>
<path d="M92.2599 11.1714V23.2472C92.2599 25.3192 93.9395 26.9988 96.0114 26.9988H108.97" fill="#A7B0E9"/>
<path d="M36.6032 123.214C36.7483 122.792 37.3449 122.792 37.49 123.214L39.2528 128.338C39.2998 128.475 39.4071 128.582 39.5437 128.629L44.6676 130.392C45.0895 130.537 45.0895 131.134 44.6676 131.279L39.5437 133.041C39.4071 133.088 39.2998 133.196 39.2528 133.332L37.49 138.456C37.3449 138.878 36.7483 138.878 36.6032 138.456L34.8404 133.332C34.7934 133.196 34.6861 133.088 34.5495 133.041L29.4256 131.279C29.0037 131.134 29.0037 130.537 29.4256 130.392L34.5495 128.629C34.6861 128.582 34.7934 128.475 34.8404 128.338L36.6032 123.214Z" fill="#EBEDF3"/>
<path d="M23.4727 6.91636C23.6179 6.49451 24.2145 6.49451 24.3596 6.91636L26.1224 12.0403C26.1694 12.1768 26.2767 12.2841 26.4133 12.3311L31.5372 14.0939C31.959 14.2391 31.959 14.8357 31.5372 14.9808L26.4133 16.7436C26.2767 16.7906 26.1694 16.8979 26.1224 17.0345L24.3596 22.1584C24.2145 22.5802 23.6179 22.5802 23.4727 22.1584L21.7099 17.0345C21.6629 16.8979 21.5556 16.7906 21.419 16.7436L16.2951 14.9808C15.8733 14.8357 15.8733 14.2391 16.2951 14.0939L21.419 12.3311C21.5556 12.2841 21.6629 12.1768 21.7099 12.0403L23.4727 6.91636Z" fill="#EBEDF3"/>
<path d="M131.33 58.5003C131.475 58.0785 132.072 58.0785 132.217 58.5003L133.98 63.6242C134.027 63.7608 134.134 63.8681 134.27 63.9151L139.394 65.6779C139.816 65.8231 139.816 66.4197 139.394 66.5648L134.27 68.3276C134.134 68.3746 134.027 68.4819 133.98 68.6185L132.217 73.7424C132.072 74.1642 131.475 74.1642 131.33 73.7424L129.567 68.6185C129.52 68.4819 129.413 68.3746 129.276 68.3276L124.152 66.5648C123.73 66.4197 123.73 65.8231 124.152 65.6779L129.276 63.9151C129.413 63.8681 129.52 63.7608 129.567 63.6242L131.33 58.5003Z" fill="#EBEDF3"/>
<defs>
<filter id="filter0_d_1012_5545" x="12.1927" y="0.46155" width="116.917" height="150.226" filterUnits="userSpaceOnUse" color-interpolation-filters="sRGB">
<feFlood flood-opacity="0" result="BackgroundImageFix"/>
<feColorMatrix in="SourceAlpha" type="matrix" values="0 0 0 0 0 0 0 0 0 0 0 0 0 0 0 0 0 0 127 0" result="hardAlpha"/>
<feOffset dy="10.3168"/>
<feGaussianBlur stdDeviation="10.3168"/>
<feColorMatrix type="matrix" values="0 0 0 0 0.397708 0 0 0 0 0.47749 0 0 0 0 0.575 0 0 0 0.27 0"/>
<feBlend mode="normal" in2="BackgroundImageFix" result="effect1_dropShadow_1012_5545"/>
<feBlend mode="normal" in="SourceGraphic" in2="effect1_dropShadow_1012_5545" result="shape"/>
</filter>
<linearGradient id="paint0_linear_1012_5545" x1="70.6267" y1="8.258" x2="70.6267" y2="120.912" gradientUnits="userSpaceOnUse">
<stop stop-color="#FDFEFF"/>
<stop offset="0.9964" stop-color="#ECF0F5"/>
</linearGradient>
</defs>
</svg>
