<svg width="95" height="62" viewBox="0 0 95 62" fill="none" xmlns="http://www.w3.org/2000/svg">
<path d="M59.1935 33.615C59.8205 32.8063 60.3656 31.9284 60.8186 30.989C60.8892 30.8423 60.8276 30.6663 60.6807 30.5958C60.5344 30.5255 60.3578 30.5871 60.287 30.7333C59.6857 31.9811 58.9165 33.1163 58.0007 34.1162C56.5355 34.6923 55.0215 35.15 53.4735 35.4807C57.3724 33.3587 60.0241 29.2276 60.0241 24.4894C60.0241 19.7514 57.3724 15.6203 53.4735 13.4982C55.0169 13.828 56.5264 14.2841 57.9877 14.8578C58.811 15.7514 59.5233 16.7392 60.0953 17.8111C60.1485 17.9106 60.2504 17.9672 60.3559 17.9672C60.4025 17.9672 60.4501 17.956 60.4943 17.9325C60.6381 17.856 60.6925 17.6776 60.6159 17.5341C60.2066 16.7672 59.7241 16.0444 59.1888 15.3618C63.6597 17.354 67.6169 20.4727 70.6004 24.4894C67.618 28.5048 63.6624 31.6228 59.1935 33.615ZM36.9978 34.1155C36.1036 33.1424 35.3496 32.0553 34.7558 30.8767C34.6827 30.7312 34.5058 30.6727 34.3599 30.7457C34.2144 30.819 34.1557 30.996 34.2289 31.1412C34.6693 32.0155 35.1945 32.8412 35.7963 33.6104C31.3314 31.6179 27.3797 28.5018 24.3997 24.4894C27.3846 20.4705 31.3446 17.3506 35.8184 15.3586C35.2777 16.0517 34.791 16.7882 34.3789 17.5727C34.3033 17.7166 34.3589 17.8947 34.5032 17.9703C34.5468 17.9931 34.5938 18.0039 34.6398 18.0039C34.746 18.0039 34.8485 17.9465 34.9013 17.8461C35.4737 16.7562 36.188 15.7565 37.0143 14.8571C38.4747 14.2838 39.9835 13.8279 41.5263 13.4983C37.6274 15.6204 34.9758 19.7515 34.9758 24.4894C34.9758 29.2275 37.6274 33.3586 41.5263 35.4806C39.9777 35.1498 38.4634 34.6919 36.9978 34.1155ZM55.7143 19.5537C55.7656 19.6622 55.872 19.7234 55.9818 19.7234C56.0319 19.7234 56.0826 19.7108 56.1289 19.684L57.1847 19.0571C57.4404 18.9052 57.7733 19.0002 57.9064 19.2659C58.5495 20.5493 58.9628 21.9804 59.0926 23.4387C59.1192 23.7379 58.8805 23.9952 58.5798 23.9952H56.4941C56.3311 23.9952 56.1992 24.1856 56.1992 24.3482C56.1992 24.5109 56.3311 24.7014 56.4941 24.7014H58.6014C58.897 24.7014 59.1336 24.9501 59.1153 25.2447C59.0247 26.7052 58.6488 28.1459 58.0406 29.4442C57.9128 29.7171 57.5753 29.8189 57.3154 29.6661L56.2764 29.0561C56.1356 28.9747 55.9549 29.0149 55.8735 29.1558C55.792 29.2967 55.8404 29.4727 55.9815 29.5541L57.0382 30.1619C57.2943 30.3093 57.3749 30.6429 57.2117 30.8891C56.4003 32.1133 55.3631 33.1746 54.1599 34.0158C53.9137 34.188 53.5717 34.1101 53.4215 33.85L52.8224 32.8133C52.7406 32.6724 52.5601 32.624 52.4195 32.7052C52.2784 32.7866 52.23 32.9666 52.3115 33.1075L52.9394 34.1619C53.0914 34.4173 52.9962 34.7499 52.7302 34.8828C51.4452 35.5249 50.0123 35.9377 48.5522 36.0673C48.2526 36.094 47.9949 35.8555 47.9949 35.5551V33.4721C47.9949 33.3094 47.8044 33.1775 47.6414 33.1775C47.4786 33.1775 47.2879 33.3094 47.2879 33.4721V35.5768C47.2879 35.872 47.0388 36.1083 46.7438 36.09C45.2813 35.9996 43.8388 35.6241 42.5388 35.0166C42.2657 34.889 42.1638 34.5519 42.3167 34.2923L42.9276 33.2546C43.0089 33.1137 42.9688 32.9336 42.8276 32.8522C42.6861 32.7706 42.5103 32.8192 42.4289 32.9601L41.8202 34.0154C41.6726 34.2712 41.3386 34.3518 41.0921 34.1887C39.8664 33.3784 38.8038 32.3426 37.9615 31.141C37.7891 30.8951 37.8671 30.5536 38.1274 30.4035L39.1519 29.813C39.2855 29.7361 39.3511 29.5698 39.2874 29.4296C39.2141 29.2681 39.0206 29.2085 38.8709 29.2949L37.8151 29.922C37.5595 30.0738 37.2265 29.9788 37.0934 29.7131C36.4503 28.4296 36.037 26.9986 35.9072 25.5403C35.8807 25.241 36.1193 24.9838 36.4201 24.9838H38.5059C38.6687 24.9838 38.8007 24.7934 38.8007 24.6308C38.8007 24.468 38.6687 24.2776 38.5059 24.2776H36.3984C36.1028 24.2776 35.8662 24.0289 35.8846 23.7342C35.9751 22.2736 36.3511 20.8331 36.9593 19.5347C37.0871 19.2618 37.4246 19.1601 37.6845 19.3128L38.7236 19.9229C38.7701 19.9497 38.8209 19.9704 38.8708 19.9704C38.9781 19.9704 39.0822 19.9165 39.1348 19.8119C39.2059 19.6704 39.1403 19.497 39.0029 19.4179L37.9614 18.8181C37.7054 18.6706 37.625 18.3371 37.7881 18.091C38.5995 16.8667 39.6368 15.805 40.84 14.9638C41.0862 14.7915 41.4282 14.8695 41.5784 15.1294L42.1775 16.1658C42.2322 16.2603 42.3312 16.3133 42.4332 16.3133C42.4831 16.3133 42.5338 16.3006 42.5804 16.2739C42.7214 16.1926 42.7697 16.0125 42.6883 15.8716L42.0606 14.8171C41.9084 14.5618 42.0036 14.2292 42.2697 14.0963C43.5547 13.454 44.9876 13.0413 46.4478 12.9116C46.7475 12.885 47.005 13.1235 47.005 13.4238V15.5069C47.005 15.6696 47.1957 15.8014 47.3586 15.8014C47.5214 15.8014 47.7121 15.6696 47.7121 15.5069V13.4022C47.7121 13.107 47.9611 12.8707 48.2562 12.8889C49.7187 12.9794 51.1612 13.3548 52.4613 13.9624C52.7345 14.09 52.8363 14.427 52.6834 14.6867L52.0725 15.7244C51.991 15.8653 52.0313 16.0454 52.1725 16.1268C52.2188 16.1535 52.2655 16.1662 52.3155 16.1662C52.4175 16.1662 52.5145 16.1133 52.5693 16.0188L53.1788 14.9632C53.3264 14.7075 53.6603 14.6272 53.9067 14.7901C55.1326 15.6005 56.1956 16.6364 57.0379 17.8381C57.2103 18.0839 57.1323 18.4255 56.8719 18.5756L55.8488 19.1654C55.7136 19.2434 55.6476 19.4127 55.7143 19.5537ZM71.5069 24.2304C65.9428 16.5605 56.9684 11.9813 47.5 11.9813C38.0316 11.9813 29.0569 16.5605 23.4929 24.2304L23.3051 24.4894L23.4929 24.7486C29.0569 32.4185 38.0316 36.9977 47.5 36.9977C56.9684 36.9977 65.9428 32.4185 71.5069 24.7486L71.6949 24.4894L71.5069 24.2304Z" fill="#28385C"/>
<path d="M33.8695 28.6828C33.8215 28.5272 33.6558 28.4395 33.5009 28.4881C33.3452 28.5361 33.258 28.7008 33.3058 28.8562C33.4263 29.2468 33.5657 29.6382 33.72 30.0192C33.7665 30.1339 33.877 30.2034 33.9936 30.2034C34.0303 30.2034 34.0677 30.1964 34.1041 30.1819C34.2551 30.1208 34.328 29.949 34.2669 29.7983C34.1187 29.4327 33.9851 29.0575 33.8695 28.6828Z" fill="#28385C"/>
<path d="M33.3972 28.1066C33.5558 28.0695 33.6542 27.911 33.6171 27.7527C32.9782 25.0281 33.1829 22.067 34.1936 19.415C34.2613 19.237 34.1454 19.0344 33.9392 19.0158C33.8021 19.0035 33.6749 19.0927 33.6264 19.2214C33.1065 20.5992 32.7953 22.1093 32.697 23.5173C32.6781 23.7869 32.4536 23.9952 32.183 23.9952H31.1906C31.0278 23.9952 30.8958 24.1856 30.8958 24.3483C30.8958 24.5109 31.0278 24.7014 31.1906 24.7014H32.1596C32.4377 24.7014 32.6634 24.9215 32.6755 25.199C32.7131 26.0693 32.835 27.0332 33.0428 27.9193C33.0746 28.0551 33.1959 28.1305 33.3297 28.1305C33.352 28.1305 33.3746 28.1119 33.3972 28.1066Z" fill="#65ACE0"/>
<path d="M61.2468 20.0056C61.2788 20.0056 61.3113 20.0003 61.343 19.9894C61.4971 19.9362 61.5789 19.7685 61.5256 19.6147C61.3865 19.2131 61.2267 18.8109 61.0505 18.4193C60.9834 18.271 60.8089 18.2047 60.6605 18.2715C60.5119 18.3382 60.4456 18.5125 60.5125 18.6609C60.6816 19.0364 60.835 19.4221 60.9681 19.8072C61.0104 19.929 61.1244 20.0056 61.2468 20.0056Z" fill="#65ACE0"/>
<path d="M47.3626 23.8787C47.0228 23.9077 46.7708 24.2063 46.7999 24.5457C46.829 24.8851 47.1279 25.1366 47.4678 25.1077C47.8076 25.0787 48.0596 24.7801 48.0305 24.4407C48.0014 24.1013 47.7025 23.8497 47.3626 23.8787Z" fill="#28385C"/>
<path d="M47.5455 26.0156C46.7033 26.0899 45.9625 25.4626 45.8908 24.6233C45.8189 23.7837 46.4445 23.0423 47.285 22.9707C47.3295 22.9668 47.3738 22.9649 47.418 22.9649C47.7776 22.9649 48.1226 23.0903 48.4011 23.3246C48.7138 23.5876 48.9051 23.9565 48.9399 24.363C48.9748 24.7699 48.8486 25.1657 48.5853 25.4778C48.3219 25.79 47.9528 25.9809 47.5455 26.0156ZM48.97 26.3613C48.8835 26.2078 48.9017 26.0168 49.0154 25.8821C49.3498 25.4865 49.5491 24.9858 49.5359 24.4683C49.52 23.844 49.2862 23.2717 48.8135 22.8742C48.6377 22.7263 48.4137 22.6098 48.2002 22.527C47.906 22.4127 47.7121 22.1308 47.7121 21.8157V17.274C47.7121 17.1114 47.5215 16.9796 47.3585 16.9796C47.1957 16.9796 47.005 17.1114 47.005 17.274V21.8545C47.005 22.1589 46.8211 22.4278 46.544 22.5547C45.7718 22.9084 45.1975 23.7472 45.2767 24.6734C45.371 25.7756 46.3125 26.6104 47.4005 26.6104C47.4606 26.6104 47.528 26.6078 47.589 26.6026C47.7238 26.5911 47.8563 26.5666 47.9844 26.5305C48.1855 26.4737 48.3994 26.5557 48.5017 26.7375L50.2143 29.7757C50.2685 29.8719 50.3694 29.9259 50.4726 29.9259C50.5215 29.9259 50.5715 29.9138 50.6173 29.888C50.7592 29.8084 50.8098 29.6288 50.73 29.487L48.97 26.3613Z" fill="#28385C"/>
<path d="M64.3348 23.9953H62.8099C62.5369 23.9953 62.3106 23.783 62.2955 23.5107C62.2422 22.5456 62.0948 21.5903 61.8502 20.6565C61.8082 20.4971 61.6438 20.4162 61.4845 20.4608C61.326 20.5052 61.2408 20.6775 61.2823 20.8365C61.9814 23.5144 61.8595 26.4665 60.939 29.1442C60.8863 29.2981 60.9684 29.4673 61.1221 29.5201C61.1541 29.531 61.1864 29.537 61.2181 29.537C61.3404 29.537 61.4551 29.4928 61.4971 29.3707C61.9632 28.0144 62.2307 26.5877 62.2999 25.1882C62.3134 24.9149 62.5405 24.7015 62.8144 24.7015H64.3348C64.4979 24.7015 64.6298 24.511 64.6298 24.3483C64.6298 24.1857 64.4979 23.9953 64.3348 23.9953Z" fill="#28385C"/>
<path d="M65.8579 24.3483C65.8579 24.5109 65.9898 24.7013 66.1529 24.7013H67.9948C68.1577 24.7013 68.2896 24.5109 68.2896 24.3483C68.2896 24.1856 68.1577 23.9952 67.9948 23.9952H66.1529C65.9898 23.9952 65.8579 24.1856 65.8579 24.3483Z" fill="#65ACE0"/>
<path d="M30.0171 23.9952H26.4155C26.2526 23.9952 26.1206 24.1857 26.1206 24.3483C26.1206 24.511 26.2526 24.7014 26.4155 24.7014H30.0171C30.1799 24.7014 30.312 24.511 30.312 24.3483C30.312 24.1857 30.1799 23.9952 30.0171 23.9952Z" fill="#28385C"/>
<path d="M6.67133 44.5496V52.7991H9.14937C11.4858 52.7991 13.3974 51.0078 13.3974 48.6744C13.3974 46.3409 11.4858 44.5496 9.14937 44.5496H6.67133ZM7.61534 51.9153V45.4335H9.14937C11.0728 45.4335 12.4534 46.6945 12.4534 48.6744C12.4534 50.6543 11.0728 51.9153 9.14937 51.9153H7.61534ZM16.3357 44.5496V52.7991H22.1178V51.9153H17.2797V49.1104H20.9378V48.2265H17.2797V45.4335H22.1178V44.5496H16.3357ZM25.056 48.0851V48.9101H28.9737V48.0851H25.056ZM31.9119 52.7991H32.8559V49.1104H36.514V48.2265H32.8559V45.4335H37.694V44.5496H31.9119V52.7991ZM43.9363 44.5496L40.6323 52.7991H41.6235L42.4377 50.7603H46.7094L47.5236 52.7991H48.5148L45.2108 44.5496H43.9363ZM42.7917 49.8765L44.5735 45.4335L46.3554 49.8765H42.7917ZM54.5919 52.917C56.2911 52.917 57.7071 51.5028 57.7071 49.7822V44.5496H56.7631V49.8411C56.7631 51.0432 55.7719 52.0331 54.5919 52.0331C53.3883 52.0331 52.3971 51.0432 52.3971 49.8411V44.5496H51.453V49.7822C51.453 51.5028 52.8691 52.917 54.5919 52.917ZM64.8935 52.917C66.6399 52.917 68.1621 51.8446 68.7993 50.3243H67.8199C67.2889 51.3849 66.2269 52.0331 64.8935 52.0331C62.97 52.0331 61.5894 50.6543 61.5894 48.6744C61.5894 46.6945 62.97 45.3156 64.8935 45.3156C65.9555 45.3156 66.8523 45.7399 67.4423 46.447L68.1385 45.9402C67.3597 45.021 66.1915 44.4318 64.8935 44.4318C62.557 44.4318 60.6454 46.3409 60.6454 48.6744C60.6454 51.0078 62.557 52.917 64.8935 52.917ZM75.9856 52.0331C74.0622 52.0331 72.6816 50.6543 72.6816 48.6744C72.6816 46.6945 74.0622 45.3156 75.9856 45.3156C77.9091 45.3156 79.2897 46.6945 79.2897 48.6744C79.2897 50.6543 77.9091 52.0331 75.9856 52.0331ZM71.7376 48.6744C71.7376 51.0078 73.6492 52.917 75.9856 52.917C78.3221 52.917 80.2337 51.0078 80.2337 48.6744C80.2337 46.3409 78.3221 44.4318 75.9856 44.4318C73.6492 44.4318 71.7376 46.3409 71.7376 48.6744ZM83.172 44.5496V52.7991H84.116V45.5042L88.6 52.7991H90.0161V44.5496H89.0721V51.8446L84.588 44.5496H83.172Z" fill="#1B4868"/>
</svg>
