<svg width="61" height="64" viewBox="0 0 61 64" fill="none" xmlns="http://www.w3.org/2000/svg">
<rect x="0.00012207" width="60.8084" height="64" rx="8" fill="#F0F7FC"/>
<path d="M24.419 42.416C23.451 40.68 22.939 38.552 22.939 36.248C22.939 32.376 26.291 29.2241 30.403 29.2241C34.523 29.2241 37.867 32.3761 37.867 36.248C37.867 36.6881 38.227 37.0481 38.6671 37.0481C39.1071 37.0481 39.4671 36.6881 39.4671 36.248C39.4671 31.488 35.4031 27.624 30.4031 27.624C25.4032 27.624 21.339 31.496 21.339 36.248C21.339 38.8241 21.923 41.232 23.027 43.2C24.107 45.128 24.859 46.016 26.243 47.416C26.403 47.576 26.603 47.656 26.811 47.656C27.011 47.656 27.219 47.584 27.363 47.416C27.683 47.112 27.683 46.6 27.371 46.288C26.139 45.0481 25.451 44.2561 24.419 42.416Z" fill="#1A87D7"/>
<path d="M21.507 19.856C24.251 18.3599 27.243 17.6 30.419 17.6C33.603 17.6 36.267 18.28 39.331 19.864C39.451 19.92 39.571 19.952 39.699 19.952C39.987 19.952 40.267 19.792 40.411 19.52C40.611 19.1279 40.459 18.64 40.067 18.44C36.803 16.752 33.827 16 30.419 16C26.979 16 23.723 16.824 20.739 18.448C20.347 18.664 20.211 19.144 20.419 19.536C20.635 19.928 21.115 20.064 21.507 19.856Z" fill="#1A87D7"/>
<path d="M30.3469 23.728C25.1869 23.728 20.467 26.6161 18.331 31.08C17.6029 32.592 17.235 34.336 17.235 36.256C17.235 38.416 17.619 40.48 18.403 42.584C18.5629 43 19.0189 43.208 19.435 43.056C19.851 42.896 20.059 42.44 19.9069 42.024C18.9549 39.472 18.8429 37.504 18.8429 36.256C18.8429 34.576 19.1549 33.064 19.7789 31.768C21.6509 27.848 25.8029 25.3201 30.3549 25.3201C36.7469 25.3201 41.9469 30.2241 41.9469 36.256C41.9469 37.976 40.4508 39.368 38.6189 39.368C36.7869 39.368 35.2909 37.968 35.2909 36.256C35.2909 33.656 33.0829 31.544 30.3629 31.544C27.6429 31.544 25.4349 33.656 25.4349 36.256C25.4349 39.416 26.6669 42.384 28.8989 44.608C30.6269 46.328 32.2909 47.272 34.8429 47.968C34.9068 47.992 34.9788 48 35.0508 48C35.4028 48 35.7228 47.7681 35.8188 47.416C35.9388 46.992 35.6829 46.552 35.2588 46.432C33.0028 45.816 31.5308 44.984 30.0188 43.48C28.0908 41.56 27.0268 38.992 27.0268 36.264C27.0268 34.5441 28.5229 33.1521 30.3548 33.1521C32.1867 33.1521 33.6828 34.5521 33.6828 36.264C33.6828 38.8641 35.8988 40.9761 38.6108 40.9761C41.3228 40.9761 43.5388 38.8641 43.5388 36.264C43.5389 29.352 37.6189 23.728 30.3469 23.728Z" fill="#1A87D7"/>
<path d="M44.6589 27.0399C43.0669 24.8159 41.0509 23.0718 38.6589 21.8399C33.6189 19.2479 27.1869 19.2559 22.155 21.8559C19.755 23.0958 17.7309 24.8559 16.1469 27.0959C15.891 27.4559 15.9789 27.9519 16.3389 28.2079C16.4829 28.3039 16.6429 28.3519 16.803 28.3519C17.051 28.3519 17.2989 28.2399 17.459 28.0239C18.891 25.992 20.723 24.3999 22.891 23.28C27.475 20.912 33.339 20.904 37.931 23.264C40.091 24.368 41.915 25.952 43.355 27.968C43.6109 28.328 44.1149 28.408 44.4749 28.152C44.8349 27.8958 44.915 27.3999 44.6589 27.0399Z" fill="#1A87D7"/>
<path d="M39.947 42.944C39.307 43.056 38.659 43.0961 38.275 43.0961C36.675 43.0961 35.347 42.7201 34.219 41.9521C32.275 40.6321 31.115 38.5041 31.115 36.2561C31.115 35.8161 30.755 35.4561 30.3149 35.4561C29.8749 35.4561 29.5149 35.8161 29.5149 36.2561C29.5149 39.0401 30.9389 41.6641 33.3149 43.28C34.6989 44.216 36.371 44.696 38.2749 44.696C38.4989 44.696 39.2909 44.688 40.2269 44.52C40.6589 44.44 40.955 44.024 40.8749 43.592C40.7949 43.16 40.379 42.8641 39.947 42.944Z" fill="#1A87D7"/>
</svg>
