<svg width="25" height="24" viewBox="0 0 25 24" fill="none" xmlns="http://www.w3.org/2000/svg">
<path opacity="0.35" d="M18.5 21H6.5C4.843 21 3.5 19.657 3.5 18V6C3.5 4.343 4.843 3 6.5 3H18.5C20.157 3 21.5 4.343 21.5 6V18C21.5 19.657 20.157 21 18.5 21Z" fill="#98A2B3"/>
<path d="M10.5 18H7.5C6.948 18 6.5 17.552 6.5 17V14C6.5 13.448 6.948 13 7.5 13H10.5C11.052 13 11.5 13.448 11.5 14V17C11.5 17.552 11.052 18 10.5 18Z" fill="#98A2B3"/>
<path d="M17.5 18H14.5C13.948 18 13.5 17.552 13.5 17V14C13.5 13.448 13.948 13 14.5 13H17.5C18.052 13 18.5 13.448 18.5 14V17C18.5 17.552 18.052 18 17.5 18Z" fill="#98A2B3"/>
<path d="M10.5 11H7.5C6.948 11 6.5 10.552 6.5 10V7C6.5 6.448 6.948 6 7.5 6H10.5C11.052 6 11.5 6.448 11.5 7V10C11.5 10.552 11.052 11 10.5 11Z" fill="#98A2B3"/>
<path d="M17.5 11H14.5C13.948 11 13.5 10.552 13.5 10V7C13.5 6.448 13.948 6 14.5 6H17.5C18.052 6 18.5 6.448 18.5 7V10C18.5 10.552 18.052 11 17.5 11Z" fill="#98A2B3"/>
</svg>
