<svg width="40" height="40" viewBox="0 0 40 40" fill="none" xmlns="http://www.w3.org/2000/svg">
<rect width="40" height="40" rx="8" fill="#F2EFFF"/>
<path opacity="0.35" d="M12 18C12 13.582 15.582 10 20 10C24.418 10 28 13.582 28 18C28 21.564 23.936 26.652 21.601 29.28C20.75 30.238 19.25 30.238 18.399 29.28C16.064 26.652 12 21.564 12 18Z" fill="#7C65E0"/>
<path d="M20 21C21.6569 21 23 19.6569 23 18C23 16.3431 21.6569 15 20 15C18.3431 15 17 16.3431 17 18C17 19.6569 18.3431 21 20 21Z" fill="#7C65E0"/>
</svg>
