<svg width="109" height="56" viewBox="0 0 109 56" fill="none" xmlns="http://www.w3.org/2000/svg">
<path d="M80.8401 48.4279C82.2525 46.6174 83.4802 44.6523 84.5007 42.5494C84.6597 42.2211 84.5209 41.827 84.1901 41.6692C83.8605 41.5119 83.4627 41.6497 83.3033 41.977C81.9487 44.7703 80.2162 47.3115 78.1533 49.5497C74.8528 50.8393 71.4425 51.8639 67.9555 52.6044C76.738 47.854 82.711 38.6065 82.711 27.9999C82.711 17.3936 76.738 8.14608 67.9555 3.39576C71.4322 4.13402 74.8324 5.15493 78.124 6.43919C79.9784 8.43948 81.583 10.6508 82.8713 13.0503C82.9911 13.2731 83.2208 13.3996 83.4583 13.3996C83.5634 13.3996 83.6705 13.3747 83.7702 13.322C84.0941 13.1507 84.2167 12.7515 84.0441 12.4303C83.1221 10.7134 82.0351 9.09541 80.8295 7.56734C90.9004 12.027 99.8141 19.0084 106.534 27.9999C99.8165 36.9885 90.9065 43.9683 80.8401 48.4279ZM30.8433 49.5482C28.8291 47.3699 27.1307 44.9364 25.7932 42.298C25.6285 41.9724 25.23 41.8415 24.9014 42.0049C24.5736 42.1688 24.4414 42.5651 24.6063 42.8902C25.5983 44.8473 26.7814 46.6956 28.1369 48.4176C18.0797 43.9573 9.17827 36.9817 2.46555 27.9999C9.18935 19.0035 18.1092 12.0194 28.1867 7.56026C26.9688 9.11178 25.8725 10.7605 24.9443 12.5165C24.7739 12.8387 24.8992 13.2374 25.2241 13.4067C25.3223 13.4578 25.4282 13.482 25.5318 13.482C25.771 13.482 26.0019 13.3535 26.1208 13.1287C27.4103 10.6889 29.0194 8.45096 30.8804 6.43773C34.1701 5.1542 37.5688 4.13377 41.044 3.396C32.2615 8.14632 26.2887 17.3939 26.2887 27.9999C26.2887 38.6063 32.2615 47.8538 41.044 52.6041C37.5557 51.8634 34.1447 50.8386 30.8433 49.5482ZM73.003 16.9512C73.1185 17.194 73.3582 17.3311 73.6056 17.3311C73.7183 17.3311 73.8325 17.3027 73.9369 17.2429L76.3151 15.8394C76.8911 15.4994 77.6411 15.7121 77.9409 16.307C79.3894 19.1799 80.3203 22.3834 80.6127 25.6479C80.6728 26.3177 80.1349 26.8935 79.4576 26.8935H74.7595C74.3923 26.8935 74.0952 27.3198 74.0952 27.6838C74.0952 28.0481 74.3923 28.4744 74.7595 28.4744H79.5063C80.1721 28.4744 80.705 29.0311 80.6639 29.6907C80.4598 32.9601 79.6131 36.185 78.2431 39.0914C77.9551 39.7022 77.1951 39.9301 76.6095 39.5881L74.2692 38.2225C73.9519 38.0405 73.545 38.1304 73.3617 38.4458C73.178 38.7611 73.2871 39.1552 73.6049 39.3374L75.985 40.6979C76.562 41.028 76.7436 41.7748 76.3759 42.3259C74.5483 45.0661 72.212 47.4419 69.5017 49.3249C68.9472 49.7104 68.1767 49.536 67.8383 48.9539L66.489 46.6333C66.3046 46.3177 65.898 46.2094 65.5814 46.3912C65.2634 46.5734 65.1544 46.9763 65.338 47.2917L66.7523 49.6521C67.0947 50.2237 66.8803 50.9683 66.2812 51.2659C63.3866 52.7033 60.159 53.6272 56.8701 53.9174C56.1951 53.9771 55.6147 53.4433 55.6147 52.7707V48.1079C55.6147 47.7436 55.1857 47.4485 54.8185 47.4485C54.4517 47.4485 54.0222 47.7436 54.0222 48.1079V52.8193C54.0222 53.4802 53.461 54.0091 52.7967 53.9683C49.5024 53.7657 46.2531 52.9254 43.3247 51.5654C42.7094 51.2798 42.48 50.5252 42.8243 49.944L44.2005 47.621C44.3836 47.3056 44.2933 46.9025 43.9753 46.7203C43.6565 46.5375 43.2605 46.6465 43.0771 46.9619L41.7059 49.3242C41.3736 49.8968 40.6211 50.0771 40.0659 49.7122C37.3049 47.8983 34.9114 45.5794 33.0142 42.8897C32.6258 42.3393 32.8015 41.5747 33.3878 41.2388L35.6956 39.9169C35.9964 39.7447 36.1444 39.3726 36.0009 39.0587C35.8357 38.6971 35.3998 38.5637 35.0626 38.7572L32.6844 40.1609C32.1087 40.5008 31.3584 40.288 31.0586 39.6934C29.6101 36.8202 28.6792 33.6168 28.3868 30.3523C28.327 29.6824 28.8645 29.1066 29.5422 29.1066H34.2405C34.6072 29.1066 34.9046 28.6803 34.9046 28.3163C34.9046 27.9521 34.6072 27.5258 34.2405 27.5258H29.4932C28.8274 27.5258 28.2945 26.969 28.3358 26.3094C28.5396 23.0398 29.3866 19.8151 30.7566 16.9087C31.0446 16.2977 31.8047 16.07 32.3902 16.4118L34.7308 17.7777C34.8356 17.8375 34.9498 17.8839 35.0623 17.8839C35.304 17.8839 35.5386 17.7632 35.657 17.5292C35.8172 17.2124 35.6693 16.8242 35.3599 16.6471L33.014 15.3044C32.4372 14.9744 32.2561 14.2278 32.6236 13.6769C34.4512 10.9362 36.7878 8.55967 39.498 6.6764C40.0526 6.2909 40.823 6.46533 41.1614 7.04724L42.5108 9.36731C42.6341 9.57887 42.8571 9.69736 43.0867 9.69736C43.1992 9.69736 43.3134 9.66901 43.4183 9.60916C43.736 9.42716 43.8448 9.02407 43.6615 8.70869L42.2474 6.34807C41.9048 5.77666 42.1192 5.03205 42.7185 4.7345C45.6131 3.29683 48.8407 2.37289 52.1299 2.08267C52.8048 2.02306 53.385 2.55685 53.385 3.22915V7.89225C53.385 8.2565 53.8145 8.55161 54.1815 8.55161C54.5482 8.55161 54.9777 8.2565 54.9777 7.89225V3.18079C54.9777 2.51997 55.5387 1.99106 56.2033 2.03186C59.4976 2.23438 62.7469 3.07476 65.6755 4.43475C66.2908 4.72057 66.5202 5.47496 66.1759 6.05613L64.7997 8.37914C64.6161 8.69452 64.7069 9.09761 65.0249 9.27985C65.1293 9.33971 65.2344 9.36804 65.3471 9.36804C65.5768 9.36804 65.7953 9.24981 65.9186 9.03825L67.2916 6.67518C67.6242 6.10279 68.3764 5.92299 68.9314 6.28773C71.6926 8.10186 74.0871 10.4207 75.9845 13.1106C76.3727 13.661 76.1972 14.4257 75.6106 14.7616L73.306 16.082C73.0013 16.2564 72.8527 16.6356 73.003 16.9512ZM108.576 27.42C96.0432 10.2507 75.828 6.10352e-05 54.5 6.10352e-05C33.172 6.10352e-05 12.9563 10.2507 0.423082 27.42L-3.05176e-05 27.9999L0.423082 28.5801C12.9563 45.7494 33.172 56.0001 54.5 56.0001C75.828 56.0001 96.0432 45.7494 108.576 28.5801L109 27.9999L108.576 27.42Z" fill="white"/>
<path d="M23.7967 37.3868C23.6886 37.0385 23.3155 36.842 22.9664 36.951C22.6157 37.0582 22.4193 37.4271 22.5271 37.775C22.7983 38.6493 23.1124 39.5254 23.4599 40.3782C23.5648 40.635 23.8137 40.7906 24.0763 40.7906C24.159 40.7906 24.2432 40.775 24.3251 40.7425C24.6653 40.6057 24.8295 40.2211 24.6919 39.8838C24.3581 39.0654 24.0571 38.2255 23.7967 37.3868Z" fill="white"/>
<path d="M22.7328 36.097C23.09 36.0139 23.3117 35.6592 23.2281 35.3047C21.7889 29.2057 22.2501 22.5772 24.5267 16.6406C24.6793 16.2421 24.4181 15.7885 23.9537 15.747C23.6448 15.7194 23.3583 15.9192 23.249 16.2072C22.0781 19.2914 21.3771 22.6717 21.1556 25.8236C21.113 26.4273 20.6074 26.8934 19.9977 26.8934H17.7623C17.3955 26.8934 17.0982 27.3197 17.0982 27.6839C17.0982 28.0479 17.3955 28.4742 17.7623 28.4742H19.9451C20.5715 28.4742 21.08 28.967 21.1071 29.5882C21.1917 31.5365 21.4664 33.6941 21.9346 35.6778C22.0062 35.9817 22.2794 36.1505 22.5807 36.1505C22.6309 36.1505 22.6819 36.109 22.7328 36.097Z" fill="white"/>
<path d="M85.4652 17.9626C85.5374 17.9626 85.6105 17.9506 85.6818 17.9262C86.0289 17.8072 86.2133 17.4317 86.0931 17.0875C85.7798 16.1885 85.42 15.2883 85.0229 14.4115C84.8718 14.0795 84.4787 13.9312 84.1445 14.0807C83.8097 14.23 83.6605 14.6201 83.8112 14.9524C84.192 15.793 84.5375 16.6563 84.8373 17.5184C84.9326 17.7911 85.1896 17.9626 85.4652 17.9626Z" fill="white"/>
<path d="M54.1906 26.6325C53.4251 26.6975 52.8575 27.3659 52.923 28.1256C52.9884 28.8854 53.6619 29.4485 54.4274 29.3838C55.1929 29.3188 55.7605 28.6504 55.695 27.8906C55.6295 27.1309 54.9561 26.5675 54.1906 26.6325Z" fill="white"/>
<path d="M54.6024 31.4162C52.7054 31.5826 51.0366 30.1783 50.8752 28.2995C50.7132 26.4201 52.1223 24.7604 54.0156 24.6001C54.1158 24.5913 54.2158 24.5872 54.3152 24.5872C55.1252 24.5872 55.9023 24.8679 56.5297 25.3924C57.2342 25.9811 57.6649 26.8068 57.7434 27.7168C57.822 28.6276 57.5377 29.5136 56.9447 30.2123C56.3513 30.9112 55.5198 31.3385 54.6024 31.4162ZM57.8111 32.1901C57.6164 31.8464 57.6573 31.4189 57.9135 31.1174C58.6667 30.2318 59.1157 29.111 59.0859 27.9526C59.0502 26.555 58.5235 25.2739 57.4587 24.3842C57.0626 24.0529 56.558 23.7922 56.0771 23.6068C55.4145 23.351 54.9778 22.72 54.9778 22.0145V11.8479C54.9778 11.4839 54.5483 11.1888 54.1813 11.1888C53.8146 11.1888 53.385 11.4839 53.385 11.8479V22.1015C53.385 22.7828 52.9708 23.3847 52.3466 23.6689C50.6071 24.4606 49.3134 26.3383 49.4918 28.4116C49.7043 30.879 51.825 32.7476 54.2758 32.7476C54.4112 32.7476 54.5631 32.7417 54.7004 32.7303C55.0041 32.7044 55.3025 32.6496 55.5912 32.5688C56.0441 32.4417 56.5258 32.6252 56.7564 33.0322L60.6139 39.8334C60.736 40.0486 60.9634 40.1695 61.1958 40.1695C61.3061 40.1695 61.4185 40.1424 61.5217 40.0848C61.8414 39.9064 61.9554 39.5046 61.7757 39.187L57.8111 32.1901Z" fill="white"/>
<path d="M92.4211 26.8935H88.9862C88.3711 26.8935 87.8613 26.4183 87.8274 25.8088C87.7073 23.6483 87.3752 21.5099 86.8244 19.4195C86.7298 19.0626 86.3594 18.8816 86.0005 18.9815C85.6436 19.0809 85.4516 19.4664 85.5452 19.8223C87.12 25.8171 86.8453 32.4253 84.7718 38.4195C84.6532 38.764 84.838 39.1427 85.1843 39.2609C85.2564 39.2853 85.3291 39.2988 85.4004 39.2988C85.6761 39.2988 85.9343 39.1998 86.0291 38.9265C87.0789 35.8904 87.6814 32.6967 87.8372 29.5639C87.8677 28.9521 88.3792 28.4743 88.9963 28.4743H92.4211C92.7883 28.4743 93.0854 28.048 93.0854 27.6838C93.0854 27.3198 92.7883 26.8935 92.4211 26.8935Z" fill="white"/>
<path d="M95.8519 27.6839C95.8519 28.0479 96.149 28.4742 96.5163 28.4742H100.665C101.032 28.4742 101.329 28.0479 101.329 27.6839C101.329 27.3199 101.032 26.8936 100.665 26.8936H96.5163C96.149 26.8936 95.8519 27.3199 95.8519 27.6839Z" fill="white"/>
<path d="M15.119 26.8936H7.00622C6.63947 26.8936 6.34213 27.3199 6.34213 27.6839C6.34213 28.0481 6.63947 28.4744 7.00622 28.4744H15.119C15.4857 28.4744 15.7833 28.0481 15.7833 27.6839C15.7833 27.3199 15.4857 26.8936 15.119 26.8936Z" fill="white"/>
</svg>
