<svg width="41" height="40" viewBox="0 0 41 40" fill="none" xmlns="http://www.w3.org/2000/svg">
<circle cx="21" cy="20" r="20" fill="#F6F8FA"/>
<path d="M18.736 25.9999C19.2061 26.4148 19.8236 26.6666 20.4999 26.6666C21.1761 26.6666 21.7936 26.4148 22.2637 25.9999M24.4999 17.3333C24.4999 16.2724 24.0784 15.255 23.3283 14.5048C22.5781 13.7547 21.5607 13.3333 20.4999 13.3333C19.439 13.3333 18.4216 13.7547 17.6714 14.5048C16.9213 15.255 16.4998 16.2724 16.4998 17.3333C16.4998 19.3934 15.9802 20.8039 15.3996 21.7369C14.9099 22.5238 14.6651 22.9173 14.6741 23.0271C14.684 23.1486 14.7098 23.195 14.8077 23.2676C14.8962 23.3333 15.2949 23.3333 16.0924 23.3333H24.9073C25.7048 23.3333 26.1035 23.3333 26.192 23.2676C26.2899 23.195 26.3157 23.1486 26.3256 23.0271C26.3346 22.9173 26.0898 22.5238 25.6001 21.7369C25.0195 20.8039 24.4999 19.3934 24.4999 17.3333Z" stroke="#36394A" stroke-width="1.33333" stroke-linecap="round" stroke-linejoin="round"/>
</svg>
