<svg width="40" height="40" viewBox="0 0 40 40" fill="none" xmlns="http://www.w3.org/2000/svg">
<rect width="40" height="40" rx="8" fill="#F2EFFF"/>
<path opacity="0.35" d="M28 26C28 27.657 26.657 29 25 29H16C14.343 29 13 27.657 13 26V14C13 12.343 14.343 11 16 11H25C26.657 11 28 12.343 28 14V26Z" fill="#7C65E0"/>
<path d="M22 26V25C22 23.895 21.105 23 20 23H12C10.895 23 10 23.895 10 25V26C10 27.657 11.343 29 13 29H25C23.343 29 22 27.657 22 26Z" fill="#7C65E0"/>
<path d="M24 17H21C20.447 17 20 16.552 20 16C20 15.448 20.447 15 21 15H24C24.553 15 25 15.448 25 16C25 16.552 24.553 17 24 17Z" fill="#7C65E0"/>
<path d="M24 21H21C20.447 21 20 20.552 20 20C20 19.448 20.447 19 21 19H24C24.553 19 25 19.448 25 20C25 20.552 24.553 21 24 21Z" fill="#7C65E0"/>
<path d="M17 17C17.5523 17 18 16.5523 18 16C18 15.4477 17.5523 15 17 15C16.4477 15 16 15.4477 16 16C16 16.5523 16.4477 17 17 17Z" fill="#7C65E0"/>
<path d="M17 21C17.5523 21 18 20.5523 18 20C18 19.4477 17.5523 19 17 19C16.4477 19 16 19.4477 16 20C16 20.5523 16.4477 21 17 21Z" fill="#7C65E0"/>
</svg>
