<svg width="24" height="24" viewBox="0 0 24 24" fill="none" xmlns="http://www.w3.org/2000/svg">
<path d="M20 17V19H4V17C2.895 17 2 17.895 2 19C2 20.104 2.895 21 4 21C4.601 21 19.399 21 20 21C21.105 21 22 20.104 22 19C22 17.895 21.105 17 20 17Z" fill="#98A2B3"/>
<path opacity="0.35" d="M17 2.414C16.448 2.966 15.552 2.966 15 2.414C14.448 1.862 13.552 1.862 13 2.414C12.448 2.966 11.552 2.966 11 2.414C10.448 1.862 9.552 1.862 9 2.414C8.448 2.966 7.552 2.966 7 2.414C6.448 1.862 5.552 1.862 5 2.414L4.414 3C4.149 3.265 4 3.625 4 4V19H20V4C20 3.625 19.851 3.265 19.586 3L19 2.414C18.448 1.862 17.552 1.862 17 2.414Z" fill="#98A2B3"/>
<path d="M16 9H8C7.447 9 7 8.552 7 8C7 7.448 7.447 7 8 7H16C16.553 7 17 7.448 17 8C17 8.552 16.553 9 16 9Z" fill="#98A2B3"/>
<path d="M12 13H8C7.447 13 7 12.552 7 12C7 11.448 7.447 11 8 11H12C12.553 11 13 11.448 13 12C13 12.552 12.553 13 12 13Z" fill="#98A2B3"/>
<path d="M16 13C16.5523 13 17 12.5523 17 12C17 11.4477 16.5523 11 16 11C15.4477 11 15 11.4477 15 12C15 12.5523 15.4477 13 16 13Z" fill="#98A2B3"/>
<path d="M12 17H8C7.447 17 7 16.552 7 16C7 15.448 7.447 15 8 15H12C12.553 15 13 15.448 13 16C13 16.552 12.553 17 12 17Z" fill="#98A2B3"/>
<path d="M16 17C16.5523 17 17 16.5523 17 16C17 15.4477 16.5523 15 16 15C15.4477 15 15 15.4477 15 16C15 16.5523 15.4477 17 16 17Z" fill="#98A2B3"/>
</svg>
