<svg width="106" height="11" viewBox="0 0 106 11" fill="none" xmlns="http://www.w3.org/2000/svg">
<path d="M0.00183105 0.152778V10.8472H3.15341C6.1249 10.8472 8.55612 8.525 8.55612 5.5C8.55612 2.475 6.1249 0.152778 3.15341 0.152778H0.00183105ZM1.20243 9.70139V1.29861H3.15341C5.59964 1.29861 7.35552 2.93333 7.35552 5.5C7.35552 8.06667 5.59964 9.70139 3.15341 9.70139H1.20243ZM12.293 0.152778V10.8472H19.6467V9.70139H13.4936V6.06528H18.1459V4.91944H13.4936V1.29861H19.6467V0.152778H12.293ZM23.3836 4.73611V5.80556H28.3661V4.73611H23.3836ZM32.1029 10.8472H33.3035V6.06528H37.9559V4.91944H33.3035V1.29861H39.4566V0.152778H32.1029V10.8472ZM47.3956 0.152778L43.1935 10.8472H44.4541L45.4896 8.20417H50.9224L51.9579 10.8472H53.2185L49.0164 0.152778H47.3956ZM45.9399 7.05833L48.206 1.29861L50.4721 7.05833H45.9399ZM60.9474 11C63.1085 11 64.9094 9.16667 64.9094 6.93611V0.152778H63.7088V7.0125C63.7088 8.57083 62.4481 9.85417 60.9474 9.85417C59.4166 9.85417 58.156 8.57083 58.156 7.0125V0.152778H56.9554V6.93611C56.9554 9.16667 58.7563 11 60.9474 11ZM74.049 11C76.2701 11 78.206 9.60972 79.0165 7.63889H77.7708C77.0955 9.01389 75.7448 9.85417 74.049 9.85417C71.6027 9.85417 69.8469 8.06667 69.8469 5.5C69.8469 2.93333 71.6027 1.14583 74.049 1.14583C75.3996 1.14583 76.5402 1.69583 77.2906 2.6125L78.176 1.95556C77.1855 0.763889 75.6998 0 74.049 0C71.0775 0 68.6462 2.475 68.6462 5.5C68.6462 8.525 71.0775 11 74.049 11ZM88.156 9.85417C85.7098 9.85417 83.9539 8.06667 83.9539 5.5C83.9539 2.93333 85.7098 1.14583 88.156 1.14583C90.6023 1.14583 92.3581 2.93333 92.3581 5.5C92.3581 8.06667 90.6023 9.85417 88.156 9.85417ZM82.7533 5.5C82.7533 8.525 85.1845 11 88.156 11C91.1275 11 93.5587 8.525 93.5587 5.5C93.5587 2.475 91.1275 0 88.156 0C85.1845 0 82.7533 2.475 82.7533 5.5ZM97.2956 0.152778V10.8472H98.4962V1.39028L104.199 10.8472H106V0.152778H104.799V9.60972L99.0965 0.152778H97.2956Z" fill="white"/>
</svg>
